<?xml version="1.0"?>
<svg xmlns="http://www.w3.org/2000/svg" height="512px" viewBox="0 1 511 511.99975" width="512px" class=""><g><path d="m507.996094 486.5c-24.871094-25.082031-60.898438-33.664062-93.097656-26.566406l63-73.035156c3.902343-4.796876 4.800781-11.097657 2.101562-16.5-2.703125-5.398438-8.402344-9-14.699219-8.398438l-223.8125 16.023438v-29.972657l224.59375-16.136719c.144531.007813.269531.085938.417969.085938.308594 0 .570312-.15625.875-.175781l.191406-.015625c7.558594-3.148438 13.933594-2.75 13.871094-15.890625-.003906-.046875.019531-.089844.015625-.136719-.003906-.039062-.027344-.070312-.03125-.113281-.824219-215.847657-195.664063-315.667969-254.921875-315.667969h-90c-8.292969 0-15 6.710938-15 15 0 41.351562 33.644531 75 75 75h15v290.167969l-166.199219 11.832031c-4.800781.300781-9.300781 3-11.699219 7.199219-2.402343 4.203125-2.703124 9.601562-.902343 14.101562l21.226562 46.605469c-17.597656 4.070312-35.304687 12.855469-48.925781 26.59375-6 5.699219-6 15.300781 0 21 5.699219 6 15.296875 6 21 0 26.398438-26.402344 73.601562-26.402344 100 0 5.699219 6 15.296875 6 21 0 21.300781-21.300781 53.398438-25.800781 79.5-13.5 7.199219 3.300781 13.800781 7.800781 19.5 13.5 5.699219 6 15.296875 6 21 0 27.300781-27 71.699219-27 99 0 5.699219 6 15.296875 6 21 0 26.398438-26.402344 73.601562-26.402344 100 0 5.394531 6 15.601562 6 21 0 6-5.699219 6-15.300781-.003906-21zm-266.507813-168.175781v-266.570313c20.710938 28.210938 34.066407 68.335938 36.941407 113.597656 4.679687 73.65625-18.054688 117.320313-36.941407 152.972657zm0 0" data-original="#000000" class="active-path" data-old_color="#1a91fb" fill="#1a91fb"/><path d="m46.5 362c.351562 0 .71875-.015625 1.066406-.042969l133.921875-9.601562v-233.871094c-6.917969-1.003906-13.5625-2.644531-19.980469-4.933594-51.0625 54.636719-103.113281 137.171875-129.4375 229.332031-1.332031 4.703126-.308593 9.773438 2.78125 13.582032 2.859376 3.515625 7.148438 5.535156 11.648438 5.535156zm0 0" data-original="#000000" class="active-path" data-old_color="#1a91fb" fill="#1a91fb"/></g> </svg>
