<?xml version="1.0"?>
<svg xmlns="http://www.w3.org/2000/svg" height="512px" viewBox="0 0 512 512.0015" width="512px" class=""><g><path d="m436.5 457.148438c-7.726562 0-15.304688.871093-22.640625 2.527343l63.582031-74.972656c3.902344-4.605469 4.667969-11.101563 1.9375-16.488281-2.730468-5.382813-8.421875-8.601563-14.445312-8.175782l-223.933594 15.992188v-30.070312l224.078125-16.007813c.304687.019531.609375.046875.921875.046875 8.066406 0 14.628906-6.371094 14.96875-14.355469.007812-.15625.019531-.308593.023438-.464843 0-.0625.007812-.121094.007812-.179688 0-118.847656-57.316406-196.023438-105.402344-239.835938-53.578125-48.820312-117.0625-75.164062-149.597656-75.164062h-90c-8.285156 0-15 6.714844-15 15 0 37.527344 27.710938 68.707031 63.742188 74.152344-64.035157 58.65625-124.953126 152.984375-153.164063 251.726562-1.347656 4.707032-.308594 9.773438 2.777344 13.574219 2.859375 3.523437 7.144531 5.546875 11.644531 5.546875.355469 0 .714844-.011719 1.070312-.039062l163.929688-11.753907v29.96875l-166.070312 11.863281c-4.859376.347657-9.25 3.03125-11.769532 7.203126-2.519531 4.171874-2.855468 9.308593-.902344 13.773437l21.230469 48.503906c-18.53125 4.0625-35.480469 13.257813-49.09375 26.875-5.859375 5.859375-5.859375 15.355469 0 21.210938 5.855469 5.859375 15.355469 5.859375 21.210938 0 13.183593-13.179688 30.886719-20.445313 49.851562-20.457031.054688 0 .113281.003906.171875.003906 18.929688.03125 36.601563 7.292968 49.765625 20.457031 5.855469 5.855469 15.355469 5.855469 21.210938 0 13.195312-13.195313 30.738281-20.460937 49.394531-20.460937 18.660156 0 36.203125 7.265624 49.394531 20.460937 2.8125 2.808594 6.628907 4.390625 10.605469 4.390625 3.980469 0 7.792969-1.582031 10.605469-4.394531 13.195312-13.191407 30.738281-20.457031 49.394531-20.457031 18.660156 0 36.199219 7.265624 49.394531 20.457031 2.8125 2.8125 6.625 4.394531 10.605469 4.394531s7.792969-1.582031 10.605469-4.394531c13.195312-13.191407 30.914062-20.457031 49.894531-20.457031s36.699219 7.265624 49.894531 20.457031c5.855469 5.859375 15.355469 5.859375 21.210938 0 5.859375-5.855469 5.859375-15.355469 0-21.210938-18.859375-18.859375-44.109375-29.246093-71.105469-29.246093zm-195.5-405.472657c20.730469 28.214844 34.058594 68.402344 36.9375 113.683594 3.679688 57.976563-10.320312 112.011719-36.9375 144.984375 0-15.164062 0-243.609375 0-258.667969zm114.394531 45.660157c41.6875 37.984374 91.015625 103.632812 95.300781 203.566406l-175.25 12.519531c26.6875-42.976563 35.636719-99.484375 32.429688-149.964844-2.648438-41.675781-14.058594-85.980469-36.832031-121.160156 25.195312 10.839844 55.765625 28.996094 84.351562 55.039063zm-201.824219-67.335938h57.429688v30h-15c-19.554688 0-36.238281-12.539062-42.429688-30zm-86.738281 298.46875c32.121094-95.945312 92.078125-176.894531 144.167969-222.523438v212.1875zm189.167969 148.691406c-17.207031-12.984375-38.0625-20.011718-60-20.011718s-42.800781 7.027343-60.007812 20.019531c-14.667969-11.039063-32.058594-17.753907-50.578126-19.527344l-17.152343-39.191406 363.226562-25.945313-65.945312 77.761719c-14.917969-8.554687-31.878907-13.117187-49.542969-13.117187-21.9375 0-42.792969 7.023437-60 20.011718zm0 0" data-original="#000000" class="active-path" data-old_color="#1a91fb" fill="#1a91fb"/></g> </svg>
